<svg xmlns="http://www.w3.org/2000/svg" width="170" height="140"><path d="M 23.462 94.363 C 18.265 94.363 14.052 90.145 14.052 84.943 L 14.052 14.682 C 14.052 9.479 18.265 5.261 23.462 5.261 L 126.431 5.261 C 131.627 5.261 135.84 9.479 135.84 14.682 L 135.84 84.943 C 135.84 90.145 131.627 94.363 126.431 94.363 Z" fill="transparent" stroke-width="9.41" stroke="#4CBBB9" stroke-linejoin="round"></path><path d="M 4.684 99.052 L 145.208 99.052" fill="rgb(76,187,185)" stroke-width="9.41" stroke="#4CBBB9" stroke-linecap="round" stroke-miterlimit="10"></path><path d="M 116.418 136.225 C 110.171 136.225 105.108 131.156 105.108 124.902 L 105.108 34.314 C 105.108 28.06 110.171 22.99 116.418 22.99 L 154.12 22.99 C 160.366 22.99 165.43 28.06 165.43 34.314 L 165.43 124.902 C 165.43 131.156 160.366 136.225 154.12 136.225 Z" fill="#fff" stroke-width="7.58" stroke="#4CBBB9" stroke-linecap="round" stroke-linejoin="round"></path><path d="M 116.418 22.99 L 122.073 22.99 C 123.114 22.99 123.958 23.835 123.958 24.877 L 123.958 24.877 C 123.958 26.962 125.646 28.652 127.728 28.652 L 142.809 28.652 C 144.891 28.652 146.579 26.962 146.579 24.877 L 146.579 24.877 C 146.579 23.835 147.423 22.99 148.464 22.99 L 154.12 22.99" fill="transparent" stroke-width="7.58" stroke="#4CBBB9" stroke-linecap="round" stroke-linejoin="round"></path></svg>