<svg xmlns="http://www.w3.org/2000/svg" width="170" height="170"><path d="M 153.335 17.867 C 153.22 17.31 152.793 16.871 152.24 16.741 C 134.184 12.325 92.474 28.06 69.853 50.665 C 65.821 54.663 62.145 59.005 58.866 63.64 C 51.893 63.01 44.921 63.541 38.984 66.131 C 22.22 73.502 17.342 92.753 15.981 101.017 C 15.831 101.935 16.117 102.87 16.755 103.547 C 17.393 104.224 18.309 104.565 19.235 104.47 L 46.152 101.515 C 46.171 103.546 46.293 105.574 46.518 107.591 C 46.658 108.986 47.28 110.288 48.277 111.274 L 58.7 121.696 C 59.686 122.694 60.989 123.316 62.385 123.456 C 64.391 123.68 66.407 123.801 68.425 123.821 L 65.473 150.716 C 65.38 151.639 65.721 152.554 66.397 153.191 C 67.073 153.828 68.006 154.114 68.923 153.966 C 77.191 152.638 96.482 147.761 103.81 131 C 106.399 125.056 106.931 118.12 106.333 111.181 C 110.982 107.905 115.336 104.228 119.345 100.194 C 142.05 77.616 157.685 36.822 153.335 17.867 Z M 99.164 70.945 C 95.109 66.891 93.895 60.792 96.09 55.494 C 98.284 50.196 103.454 46.741 109.188 46.741 C 114.923 46.741 120.093 50.196 122.287 55.494 C 124.482 60.792 123.268 66.891 119.212 70.945 C 116.556 73.607 112.949 75.103 109.188 75.103 C 105.428 75.103 101.821 73.607 99.164 70.945 Z" fill="transparent" stroke-width="10.63" stroke="#4CBBB9" stroke-linecap="round" stroke-linejoin="round"></path><path d="M 36.404 116.875 C 33.094 117.281 30.015 118.782 27.655 121.138 C 21.804 127.009 21.25 148.75 21.25 148.75 C 21.25 148.75 43.005 148.196 48.858 142.338 C 51.224 139.983 52.727 136.898 53.125 133.583" fill="transparent" stroke-width="10.63" stroke="#4CBBB9" stroke-linecap="round" stroke-linejoin="round"></path></svg>