<svg xmlns="http://www.w3.org/2000/svg" width="538" height="267"><g transform="translate(9.454 122.765)"><path d="M 31.489 104.148 C 46.399 104.148 53.855 99.041 53.855 88.828 C 53.855 85.686 53.168 83.035 51.795 80.873 C 50.519 78.615 48.753 76.7 46.498 75.128 C 44.242 73.46 41.642 72.035 38.699 70.856 C 35.684 69.612 32.642 68.433 29.576 67.321 C 25.969 66.093 22.432 64.667 18.982 63.049 C 15.648 61.38 12.751 59.465 10.3 57.304 C 7.852 55.05 5.854 52.351 4.414 49.349 C 3.042 46.304 2.354 42.621 2.354 38.301 C 2.354 29.363 5.396 22.391 11.477 17.383 C 17.559 12.374 25.946 9.87 36.639 9.87 C 42.819 9.87 48.411 10.558 53.414 11.932 C 58.516 13.21 62.242 14.632 64.597 16.204 L 60.035 27.842 C 57.975 26.564 54.885 25.337 50.765 24.159 C 46.742 22.881 42.035 22.244 36.639 22.244 C 33.892 22.244 31.342 22.538 28.988 23.128 C 26.633 23.717 24.573 24.601 22.808 25.779 C 21.05 26.949 19.589 28.512 18.54 30.346 C 17.559 32.114 17.069 34.224 17.069 36.68 C 17.069 39.431 17.609 41.737 18.687 43.604 C 19.768 45.468 21.285 47.139 23.249 48.612 C 25.387 50.088 27.652 51.369 30.018 52.442 C 32.876 53.706 35.771 54.885 38.699 55.978 C 42.784 57.6 46.808 59.369 50.765 61.281 C 54.492 63.049 57.681 65.16 60.33 67.615 C 63.066 70.056 65.227 73.075 66.657 76.454 C 68.128 79.792 68.864 83.868 68.864 88.681 C 68.864 97.618 65.576 104.494 59.005 109.304 C 52.531 114.117 43.36 116.522 31.489 116.522 C 27.466 116.522 23.741 116.228 20.306 115.639 C 17.285 115.211 14.288 114.621 11.33 113.871 C 8.99 113.191 6.683 112.405 4.414 111.514 C 2.552 110.63 1.081 109.894 0 109.304 L 4.267 97.519 C 6.523 98.797 9.958 100.219 14.567 101.791 C 19.177 103.364 24.819 104.148 31.489 104.148 Z M 80.964 76.159 C 80.964 69.383 81.944 63.491 83.907 58.482 C 85.868 53.375 88.467 49.153 91.706 45.814 C 94.852 42.536 98.665 39.973 102.887 38.301 C 107.006 36.65 111.401 35.8 115.838 35.796 C 126.138 35.796 134.033 39.037 139.528 45.519 C 145.021 51.902 147.766 61.675 147.766 74.834 L 147.766 77.191 C 147.766 78.074 147.72 78.91 147.619 79.695 L 95.237 79.695 C 95.826 87.65 98.13 93.689 102.153 97.814 C 106.175 101.939 112.453 104.001 120.986 104.001 C 125.793 104.001 129.814 103.61 133.052 102.823 C 136.388 101.939 138.891 101.103 140.556 100.318 L 142.471 111.809 C 140.802 112.692 137.859 113.625 133.642 114.607 C 129.522 115.59 124.814 116.081 119.514 116.081 C 112.847 116.081 107.057 115.098 102.151 113.134 C 97.346 111.072 93.373 108.273 90.232 104.738 C 87.094 101.202 84.74 97.027 83.169 92.216 C 81.698 87.307 80.962 81.953 80.962 76.159 Z M 133.495 68.647 C 133.592 62.46 132.024 57.403 128.787 53.474 C 125.646 49.446 121.28 47.434 115.688 47.434 C 112.55 47.434 109.757 48.072 107.301 49.349 C 104.992 50.493 102.94 52.097 101.27 54.063 C 99.572 56.08 98.228 58.371 97.298 60.839 C 96.415 63.394 95.826 65.995 95.532 68.647 Z M 167.426 39.921 C 170.564 39.136 174.733 38.301 179.933 37.417 C 185.129 36.533 191.116 36.091 197.883 36.091 C 203.966 36.091 209.018 36.975 213.039 38.743 C 217.062 40.411 220.249 42.817 222.606 45.961 C 225.056 49.006 226.774 52.689 227.756 57.009 C 228.735 61.329 229.225 66.094 229.225 71.298 L 229.225 114.313 L 215.543 114.313 L 215.543 74.244 C 215.543 69.53 215.198 65.505 214.51 62.165 C 213.922 58.827 212.892 56.125 211.42 54.063 C 209.949 52.001 207.988 50.527 205.534 49.644 C 203.084 48.661 200.042 48.17 196.411 48.17 C 194.89 48.172 193.368 48.221 191.85 48.318 C 190.282 48.417 188.762 48.564 187.291 48.76 C 186.009 48.847 184.733 48.995 183.465 49.202 C 182.384 49.397 181.6 49.547 181.108 49.644 L 181.108 114.313 L 167.426 114.313 Z M 301.36 53.916 C 299.691 52.541 297.289 51.216 294.15 49.938 C 291.01 48.661 287.577 48.023 283.85 48.023 C 279.926 48.023 276.541 48.76 273.697 50.233 C 270.975 51.586 268.645 53.615 266.928 56.125 C 265.163 58.581 263.887 61.527 263.103 64.964 C 262.316 68.4 261.926 72.083 261.926 76.012 C 261.926 84.95 264.133 91.871 268.547 96.783 C 272.961 101.594 278.847 104.001 286.205 104.001 C 289.931 104.001 293.021 103.854 295.475 103.559 C 298.024 103.168 299.986 102.774 301.36 102.381 Z M 301.36 2.357 L 315.045 0 L 315.045 112.103 C 311.904 112.987 307.883 113.871 302.979 114.755 C 298.073 115.639 292.433 116.081 286.057 116.081 C 280.172 116.081 274.874 115.148 270.166 113.282 C 265.457 111.415 261.434 108.763 258.1 105.327 C 254.764 101.89 252.163 97.715 250.301 92.806 C 248.535 87.797 247.652 82.199 247.652 76.012 C 247.652 70.12 248.388 64.718 249.857 59.808 C 251.428 54.898 253.685 50.675 256.628 47.139 C 259.549 43.621 263.219 40.802 267.37 38.89 C 271.685 36.927 276.589 35.944 282.084 35.944 C 286.499 35.944 290.373 36.533 293.709 37.711 C 297.142 38.89 299.691 40.02 301.36 41.1 Z M 330.622 63.785 L 366.967 63.785 L 366.967 76.601 L 330.622 76.601 Z M 396.223 114.313 L 382.539 114.313 L 382.539 37.711 L 396.223 37.711 Z M 389.307 23.864 C 386.854 23.864 384.746 23.079 382.98 21.507 C 381.313 19.839 380.479 17.629 380.479 14.878 C 380.479 12.128 381.313 9.969 382.98 8.397 C 384.746 6.728 386.854 5.892 389.307 5.892 C 391.761 5.892 393.821 6.728 395.487 8.397 C 397.253 9.969 398.136 12.128 398.136 14.878 C 398.136 17.629 397.253 19.839 395.487 21.507 C 393.821 23.079 391.761 23.864 389.307 23.864 Z M 432.559 37.711 L 461.547 37.711 L 461.547 49.202 L 432.559 49.202 L 432.559 84.556 C 432.559 88.386 432.853 91.576 433.442 94.131 C 434.03 96.587 434.913 98.551 436.09 100.024 C 437.262 101.395 438.79 102.415 440.505 102.97 C 442.27 103.559 444.331 103.854 446.685 103.854 C 450.805 103.854 454.09 103.412 456.544 102.528 C 458.313 101.85 460.079 101.163 461.841 100.466 L 464.489 111.809 C 463.115 112.497 460.712 113.33 457.279 114.313 C 453.844 115.392 449.922 115.933 445.508 115.933 C 440.307 115.933 435.992 115.296 432.559 114.018 C 429.223 112.644 426.526 110.63 424.466 107.978 C 422.406 105.327 420.934 102.086 420.052 98.256 C 419.265 94.327 418.874 89.809 418.874 84.703 L 418.874 16.351 L 432.559 13.994 Z" fill="rgb(255,255,255)"></path></g><g transform="translate(411.547 96.672)"><path d="M 0 13.81 C 0 6.183 6.176 0 13.795 0 C 21.414 0 27.59 6.183 27.59 13.81 C 27.59 21.438 21.414 27.621 13.795 27.621 C 6.176 27.621 0 21.438 0 13.81 Z" fill="rgb(255,255,255)"></path></g><g transform="translate(414.09 66.909)"><path d="M 35.602 20.702 C 30.192 16.156 24.527 12.731 18.607 10.427 C 12.662 8.117 6.373 6.818 0 6.585 L 0.658 0 C 7.44 0.071 14.282 1.277 21.184 3.614 C 28.093 6.028 34.547 9.755 40.55 14.798 C 46.553 19.839 51.319 25.54 54.851 31.895 C 58.391 38.331 60.785 44.884 62.033 51.559 L 55.669 53.352 C 54.334 47.109 51.966 41.134 48.661 35.674 C 45.364 30.238 41.012 25.248 35.602 20.702 Z" fill="rgb(255,255,255)"></path></g><g transform="translate(417.414 39.979)"><path d="M 47.468 27.6 C 40.256 21.542 32.701 16.975 24.808 13.902 C 16.882 10.822 8.497 9.091 0 8.781 L 0.876 0 C 9.919 0.097 19.046 1.754 28.259 4.972 C 37.46 8.088 46.063 13.007 54.067 19.73 C 62.07 26.451 68.429 34.105 73.15 42.683 C 77.858 51.158 81.045 59.845 82.712 68.746 L 74.226 71.135 C 72.389 62.669 69.273 54.811 64.88 47.565 C 60.486 40.315 54.683 33.663 47.468 27.602 Z" fill="rgb(255,255,255)"></path></g></svg>