<svg xmlns="http://www.w3.org/2000/svg" width="811" height="553"><path d="M 394.6 27.72 L 393.661 27.72 L 393.661 26.075 L 394.365 26.075 C 394.625 26.075 394.835 25.864 394.835 25.605 L 394.835 17.149 C 394.835 16.889 394.625 16.679 394.365 16.679 L 393.66 16.679 L 393.66 11.876 C 393.66 6.225 389.082 1.644 383.433 1.644 L 382.39 1.644 L 382.39 0.47 C 382.39 0.21 382.18 -0 381.92 -0 L 373.467 -0 C 373.207 -0 372.997 0.21 372.997 0.47 L 372.997 1.644 L 220.267 1.644 C 214.619 1.644 210.04 6.225 210.04 11.876 L 210.04 229.611 C 210.04 232.325 211.117 234.927 213.035 236.846 C 214.953 238.765 217.554 239.843 220.267 239.843 L 383.433 239.843 C 386.146 239.843 388.747 238.765 390.666 236.846 C 392.584 234.927 393.661 232.325 393.661 229.611 L 393.661 37.115 L 394.6 37.115 C 394.859 37.115 395.069 36.905 395.069 36.646 L 395.069 28.189 C 395.069 27.93 394.859 27.719 394.6 27.719 Z" fill="rgb(63,61,86)"></path><path d="M 218.492 8.337 L 386.617 8.337 L 386.617 231.506 L 218.492 231.506 Z" fill="rgb(242,242,242)"></path><path d="M 0 466.419 L 810.666 466.419 L 810.666 467.816 L 0 467.816 Z" fill="rgb(63,61,86)"></path><path d="M 605.109 74.244 L 604.069 74.244 L 604.069 45.752 C 604.07 41.378 602.333 37.183 599.242 34.09 C 596.15 30.998 591.957 29.26 587.586 29.26 L 527.245 29.26 C 522.873 29.26 518.68 30.997 515.588 34.09 C 512.497 37.183 510.76 41.378 510.76 45.752 L 510.76 202.067 C 510.76 206.441 512.497 210.636 515.588 213.729 C 518.68 216.821 522.873 218.559 527.245 218.559 L 587.586 218.559 C 591.957 218.559 596.15 216.821 599.242 213.728 C 602.333 210.635 604.07 206.441 604.069 202.067 L 604.069 94.527 L 605.109 94.527 Z" fill="rgb(63,61,86)"></path><path d="M 600.559 46.721 L 600.559 202.809 C 600.56 209.61 595.05 215.125 588.251 215.127 L 527.619 215.127 C 524.354 215.126 521.223 213.828 518.914 211.518 C 516.606 209.208 515.309 206.075 515.31 202.809 L 515.31 46.721 C 515.311 39.92 520.821 34.408 527.619 34.407 L 534.975 34.407 C 534.24 36.211 534.451 38.263 535.538 39.879 C 536.624 41.496 538.443 42.466 540.391 42.466 L 574.959 42.466 C 576.906 42.466 578.726 41.496 579.813 39.88 C 580.899 38.263 581.11 36.212 580.375 34.407 L 588.251 34.407 C 595.048 34.408 600.559 39.92 600.559 46.721 Z" fill="rgb(242,242,242)"></path><path d="M 540.444 55.16 L 591.67 55.16 L 591.67 57.064 L 540.444 57.064 Z M 540.444 61.19 L 591.67 61.19 L 591.67 63.094 L 540.444 63.094 Z M 540.444 67.221 L 591.67 67.221 L 591.67 69.125 L 540.444 69.125 Z M 524.2 56.338 L 535.806 56.338 L 535.806 67.948 L 524.2 67.948 Z M 540.444 190.617 L 591.67 190.617 L 591.67 192.522 L 540.444 192.522 Z M 540.444 196.647 L 591.67 196.647 L 591.67 198.551 L 540.444 198.551 Z M 540.444 202.678 L 591.67 202.678 L 591.67 204.582 L 540.444 204.582 Z M 524.2 191.794 L 535.806 191.794 L 535.806 203.405 L 524.2 203.405 Z" fill="rgb(204,204,204)"></path><path d="M 586.201 265.725 L 440.527 265.725 L 440.527 262.721 L 374.473 262.721 L 374.473 265.725 L 228.198 265.725 C 222.756 265.725 218.345 270.138 218.345 275.583 L 218.345 475.14 C 218.344 477.755 219.383 480.262 221.23 482.111 C 223.078 483.96 225.585 484.998 228.198 484.998 L 586.201 484.998 C 588.814 484.998 591.321 483.96 593.169 482.111 C 595.016 480.262 596.054 477.755 596.054 475.14 L 596.054 275.583 C 596.054 270.138 591.643 265.725 586.201 265.725 Z" fill="rgb(63,61,86)"></path><path d="M 231.555 283.146 L 582.843 283.146 L 582.843 481.393 L 231.555 481.393 Z" fill="rgb(242,242,242)"></path><path d="M 403.297 274.135 C 403.297 272.145 404.91 270.531 406.899 270.531 C 408.889 270.531 410.502 272.145 410.502 274.135 C 410.502 276.126 408.889 277.739 406.899 277.739 C 404.91 277.739 403.297 276.126 403.297 274.135 Z" fill="rgb(76,187,185)"></path><path d="M 605.918 477.789 L 571.635 477.789 L 571.635 475.317 C 571.635 475.187 571.583 475.063 571.491 474.971 C 571.399 474.879 571.274 474.828 571.144 474.828 L 559.39 474.828 C 559.12 474.828 558.9 475.047 558.9 475.318 L 558.9 477.789 L 551.554 477.789 L 551.554 475.317 C 551.554 475.047 551.334 474.828 551.064 474.828 L 539.31 474.828 C 539.04 474.828 538.82 475.047 538.82 475.318 L 538.82 477.789 L 531.474 477.789 L 531.474 475.317 C 531.473 475.047 531.254 474.828 530.984 474.828 L 519.23 474.828 C 518.959 474.828 518.74 475.047 518.74 475.318 L 518.74 477.789 L 511.393 477.789 L 511.393 475.317 C 511.393 475.047 511.174 474.828 510.903 474.828 L 499.15 474.828 C 498.879 474.828 498.66 475.047 498.66 475.318 L 498.66 477.789 L 491.313 477.789 L 491.313 475.317 C 491.313 475.047 491.094 474.828 490.823 474.828 L 479.069 474.828 C 478.799 474.828 478.579 475.047 478.579 475.318 L 478.579 477.789 L 471.233 477.789 L 471.233 475.317 C 471.232 475.047 471.013 474.828 470.743 474.828 L 458.99 474.828 C 458.719 474.828 458.5 475.047 458.5 475.318 L 458.5 477.789 L 451.152 477.789 L 451.152 475.317 C 451.152 475.047 450.932 474.828 450.662 474.828 L 358.587 474.828 C 358.317 474.828 358.098 475.048 358.098 475.318 L 358.098 477.789 L 350.751 477.789 L 350.751 475.317 C 350.751 475.047 350.532 474.828 350.261 474.828 L 338.507 474.828 C 338.236 474.828 338.017 475.048 338.017 475.318 L 338.017 477.789 L 330.671 477.789 L 330.671 475.317 C 330.671 475.047 330.451 474.828 330.181 474.828 L 318.426 474.828 C 318.156 474.828 317.937 475.048 317.937 475.318 L 317.937 477.789 L 310.591 477.789 L 310.591 475.317 C 310.59 475.047 310.371 474.828 310.101 474.828 L 298.346 474.828 C 298.076 474.828 297.857 475.048 297.857 475.318 L 297.857 477.789 L 290.51 477.789 L 290.51 475.317 C 290.51 475.047 290.291 474.828 290.02 474.828 L 278.266 474.828 C 277.996 474.828 277.777 475.048 277.777 475.318 L 277.777 477.789 L 270.43 477.789 L 270.43 475.317 C 270.43 475.047 270.21 474.828 269.94 474.828 L 258.186 474.828 C 257.915 474.828 257.696 475.048 257.696 475.318 L 257.696 477.789 L 250.349 477.789 L 250.349 475.317 C 250.349 475.047 250.13 474.828 249.859 474.828 L 238.105 474.828 C 237.834 474.828 237.615 475.048 237.615 475.318 L 237.615 477.789 L 215.086 477.789 C 208.594 477.789 203.331 483.054 203.331 489.549 L 203.331 494.866 C 203.332 501.36 208.594 506.625 215.086 506.625 L 605.917 506.625 C 609.034 506.625 612.024 505.386 614.229 503.181 C 616.433 500.976 617.672 497.985 617.672 494.866 L 617.672 489.549 C 617.672 483.054 612.409 477.789 605.918 477.789 Z" fill="rgb(63,61,86)"></path><path d="M 373.247 298.674 L 471.823 298.674 L 471.823 302.338 L 373.247 302.338 Z M 373.247 310.278 L 471.823 310.278 L 471.823 313.942 L 373.247 313.942 Z M 373.247 321.882 L 471.823 321.882 L 471.823 325.546 L 373.247 325.546 Z" fill="rgb(230,230,230)"></path><path d="M 373.247 298.674 L 471.823 298.674 L 471.823 302.338 L 373.247 302.338 Z M 373.247 310.278 L 471.823 310.278 L 471.823 313.942 L 373.247 313.942 Z M 373.247 321.882 L 471.823 321.882 L 471.823 325.546 L 373.247 325.546 Z M 341.988 300.938 L 364.322 300.938 L 364.322 323.282 L 341.988 323.282 Z M 373.247 429.243 L 471.823 429.243 L 471.823 432.907 L 373.247 432.907 Z M 373.247 440.847 L 471.823 440.847 L 471.823 444.511 L 373.247 444.511 Z M 373.247 452.451 L 471.823 452.451 L 471.823 456.115 L 373.247 456.115 Z M 341.988 431.508 L 364.322 431.508 L 364.322 453.851 L 341.988 453.851 Z" fill="rgb(204,204,204)"></path><path d="M 645.081 215.787 C 639.291 209.476 631.498 205.362 623.023 204.141 L 626.651 200.863 L 622.638 200.66 L 617.672 205.15 L 622.16 210.118 L 626.173 210.32 L 623.166 206.994 C 640.895 209.857 653.451 225.866 652.014 243.774 C 650.578 261.683 635.631 275.483 617.672 275.481 L 617.672 278.274 C 632.454 278.274 645.837 269.528 651.777 255.986 C 657.717 242.444 655.09 226.67 645.081 215.787 Z M 163.127 215.787 C 168.917 209.476 176.71 205.362 185.185 204.141 L 181.557 200.863 L 185.57 200.66 L 190.536 205.15 L 186.048 210.118 L 182.035 210.32 L 185.042 206.994 C 167.313 209.857 154.757 225.866 156.194 243.774 C 157.63 261.683 172.578 275.483 190.536 275.481 L 190.536 278.274 C 175.754 278.274 162.371 269.528 156.431 255.986 C 150.491 242.444 153.119 226.67 163.127 215.787 Z" fill="rgb(63,61,86)"></path><path d="M 268.896 19.38 L 367.472 19.38 L 367.472 23.044 L 268.896 23.044 Z M 268.896 30.985 L 367.472 30.985 L 367.472 34.649 L 268.896 34.649 Z M 268.896 42.589 L 367.472 42.589 L 367.472 46.253 L 268.896 46.253 Z M 237.637 21.645 L 259.971 21.645 L 259.971 43.989 L 237.637 43.989 Z M 268.557 193.241 L 367.133 193.241 L 367.133 196.905 L 268.557 196.905 Z M 268.557 204.845 L 367.133 204.845 L 367.133 208.509 L 268.557 208.509 Z M 268.557 216.449 L 367.133 216.449 L 367.133 220.113 L 268.557 220.113 Z M 237.298 195.505 L 259.632 195.505 L 259.632 217.848 L 237.298 217.848 Z" fill="rgb(204,204,204)"></path><path d="M 677.811 186.506 L 706.639 186.506 C 708.606 175.129 708.606 163.498 706.639 152.12 L 677.811 152.12 C 681.059 163.352 681.059 175.275 677.811 186.506 Z" fill="rgb(76,187,185)"></path><path d="M 706.954 294.512 L 735.781 294.512 C 737.749 283.135 737.749 271.504 735.781 260.126 L 706.954 260.126 C 710.202 271.358 710.202 283.281 706.954 294.512 Z" fill="rgb(76,187,185)"></path><path d="M 245.673 121.514 C 245.673 112.312 253.13 104.851 262.328 104.851 C 271.527 104.851 278.984 112.312 278.984 121.514 C 278.984 130.717 271.527 138.177 262.328 138.177 C 253.13 138.177 245.673 130.717 245.673 121.514 Z" fill="rgb(76,187,185)"></path><path d="M 293.133 121.514 C 293.133 113.994 299.226 107.899 306.742 107.899 C 314.259 107.899 320.352 113.994 320.352 121.514 C 320.352 129.034 314.259 135.13 306.742 135.13 C 299.226 135.13 293.133 129.034 293.133 121.514 Z" fill="rgb(76,187,185)"></path><path d="M 342.876 121.514 C 342.876 116.939 346.583 113.23 351.156 113.23 C 355.729 113.23 359.436 116.939 359.436 121.514 C 359.436 126.089 355.729 129.798 351.156 129.798 C 346.583 129.798 342.876 126.089 342.876 121.514 Z" fill="rgb(76,187,185)"></path><path d="M 527.947 123.601 C 527.947 118.767 531.864 114.848 536.696 114.848 C 541.528 114.848 545.446 118.767 545.446 123.601 C 545.446 128.435 541.528 132.354 536.696 132.354 C 531.864 132.354 527.947 128.435 527.947 123.601 Z" fill="rgb(76,187,185)"></path><path d="M 553.073 123.601 C 553.073 119.758 556.187 116.642 560.029 116.642 C 563.871 116.642 566.985 119.758 566.985 123.601 C 566.985 127.445 563.871 130.56 560.029 130.56 C 556.187 130.56 553.073 127.445 553.073 123.601 Z" fill="rgb(76,187,185)"></path><path d="M 578.799 123.601 C 578.799 121.081 580.842 119.037 583.361 119.037 C 585.88 119.037 587.923 121.081 587.923 123.601 C 587.923 126.122 585.88 128.165 583.361 128.165 C 580.842 128.165 578.799 126.122 578.799 123.601 Z" fill="rgb(76,187,185)"></path><path d="M 367.812 375.671 C 367.812 354.076 385.31 336.57 406.896 336.57 C 428.482 336.57 445.98 354.076 445.98 375.671 C 445.98 397.266 428.482 414.772 406.896 414.772 C 385.31 414.772 367.812 397.266 367.812 375.671 Z" fill="rgb(76,187,185)"></path><path d="M 421.437 384.27 L 406.858 354.813 L 392.355 384.308 L 400.55 384.297 L 400.55 396.529 L 413.235 396.529 L 413.235 384.281 Z" fill="rgb(208,205,225)"></path></svg>